<?xml version="1.0" encoding="UTF-8"?> <svg xmlns="http://www.w3.org/2000/svg" id="Capa_1" height="512" viewBox="0 0 512 512" width="512"><g><g><g><path d="m173.236 176.129 12.469-12.469c5.858-5.858 5.858-15.355 0-21.213l-106.061-106.062c-5.858-5.858-15.354-5.858-21.212-.001l-31.689 31.682c-.003.003-.003.003-.006.006-14.183 14.184-23.127 32.199-25.864 52.093-2.723 19.791.952 39.554 10.627 57.152 37.887 68.918 82.007 127.491 138.85 184.334s115.416 100.962 184.333 138.849c17.598 9.675 37.361 13.349 57.152 10.627 19.898-2.737 37.913-11.682 52.098-25.871l31.682-31.688c5.857-5.858 5.857-15.354-.001-21.212l-106.061-106.061c-5.858-5.858-15.355-5.858-21.213 0l-12.469 12.469c-4.839 4.839-12.244 5.855-18.007 2.47-20.149-11.835-50.845-32.622-82.66-64.437-31.816-31.816-52.602-62.512-64.436-82.66-3.387-5.763-2.371-13.168 2.468-18.008z" fill="#ff7c48"></path><path d="m369.553 326.294c-5.858-5.858-15.355-5.858-21.213 0l-12.469 12.469c-4.839 4.839-12.244 5.855-18.007 2.47-20.149-11.835-50.845-32.622-82.66-64.437l-84.854 84.854c56.843 56.843 115.416 100.963 184.333 138.85 17.598 9.675 37.361 13.349 57.152 10.627 19.898-2.737 37.913-11.682 52.098-25.87l31.682-31.688c5.857-5.858 5.857-15.354-.001-21.212z" fill="#ff4a4a"></path><path d="m475.62 453.574 21.213-21.213c17.545-17.545 17.546-46.094 0-63.64l-63.64-63.64c-17.546-17.546-46.095-17.546-63.64-.001l-21.213 21.213z" fill="#c30047"></path><path d="m206.919 142.447c17.545-17.545 17.546-46.094 0-63.64l-63.64-63.64c-17.546-17.546-46.094-17.545-63.64 0l-21.214 21.213 127.28 127.28z" fill="#ff4a4a"></path></g></g><g fill="#fff17d"><path d="m337 0c-8.285 0-15 6.716-15 15 0 8.284 6.716 15 15 15 80.082 0 145 64.919 145 145 0 8.284 6.715 14.999 14.999 14.999h.001c8.284 0 15-6.716 15-15 0-96.649-78.35-174.999-175-174.999z"></path><path d="m337 60c-8.285 0-15 6.716-15 15 0 8.284 6.716 15 15 15 46.944 0 85 38.056 85 85 0 8.284 6.715 14.999 14.999 14.999h.001c8.284 0 15-6.716 15-15 0-63.512-51.487-114.999-115-114.999z"></path><path d="m337 120c-8.284 0-15 6.716-15 15 0 8.284 6.716 15 15 15 13.807 0 25 11.193 25 25 0 8.284 6.716 15 15 15 8.284 0 15-6.716 15-15 0-30.376-24.625-55-55-55z"></path></g><g fill="#ffcd00"><path d="m460.744 51.256-21.214 21.214c26.24 26.24 42.47 62.49 42.47 102.53 0 8.284 6.715 14.999 14.999 14.999h.001c8.284 0 15-6.716 15-15 0-48.324-19.588-92.074-51.256-123.743z"></path><path d="m422 175c0 8.284 6.715 15 14.999 15h.001c8.284 0 15-6.716 15-15 0-31.756-12.872-60.506-33.683-81.317l-21.213 21.213c15.382 15.382 24.896 36.632 24.896 60.104z"></path><path d="m362 175c0 8.284 6.716 15 15 15 8.284 0 15-6.716 15-15 0-15.188-6.156-28.938-16.109-38.891l-21.213 21.213c4.523 4.525 7.322 10.775 7.322 17.678z"></path></g></g></svg> 